<svg xmlns="http://www.w3.org/2000/svg" width="40" height="40" viewBox="0 0 18 19" fill="none">
	<mask id="mask0_104_8249" style="mask-type:alpha" maskUnits="userSpaceOnUse" x="0" y="0" width="40" height="40">
		<rect y="0.333332" width="40" height="40" fill="#D9D9D9"/>
	</mask>
	<g mask="url(#mask0_104_8249)">
		<path d="M4.125 8.58336L1.5 7.08336V4.08336L4.125 2.58336L6.75 4.08336V7.08336L4.125 8.58336ZM4.125 6.85836L5.25 6.22086V4.94586L4.125 4.30836L3 4.94586V6.22086L4.125 6.85836ZM12.375 9.16461V7.42086L15 8.95836V14.2084L10.5 16.8334L6 14.2084V8.95836L8.625 7.42086V9.16461L7.5 9.82086V13.3459L10.5 15.0896L13.5 13.3459V9.82086L12.375 9.16461ZM9.75 10.8334V1.83335H16.5L15 4.08336L16.5 6.33336H11.25V10.8334H9.75Z" fill="white"/>
	</g>
</svg>