<svg xmlns="http://www.w3.org/2000/svg" width="40" height="40" viewBox="0 0 18 18" fill="#FFFFFF">
	<mask id="mask0_104_8269" style="mask-type:alpha" maskUnits="userSpaceOnUse" x="0" y="0" width="40" height="40">
		<rect width="40" height="40" fill="#FFFFFF"/>
	</mask>
	<g mask="url(#mask0_104_8269)">
		<path d="M8.625 3.75C8.2125 3.75 7.85938 3.60313 7.56563 3.30938C7.27187 3.01562 7.125 2.6625 7.125 2.25C7.125 1.825 7.27187 1.46875 7.56563 1.18125C7.85938 0.89375 8.2125 0.75 8.625 0.75C9.05 0.75 9.40625 0.89375 9.69375 1.18125C9.98125 1.46875 10.125 1.825 10.125 2.25C10.125 2.6625 9.98125 3.01562 9.69375 3.30938C9.40625 3.60313 9.05 3.75 8.625 3.75ZM9 16.875C8.7875 16.875 8.60938 16.8031 8.46562 16.6594C8.32188 16.5156 8.25 16.3375 8.25 16.125V13.125L6.91875 11.2125L6.7875 13.425C6.775 13.5625 6.74688 13.7 6.70312 13.8375C6.65937 13.975 6.5875 14.1062 6.4875 14.2313L4.95 16.275C4.825 16.4375 4.6625 16.5344 4.4625 16.5656C4.2625 16.5969 4.075 16.5437 3.9 16.4062C3.7375 16.2812 3.64062 16.1188 3.60938 15.9188C3.57812 15.7188 3.625 15.5375 3.75 15.375L5.25 13.3688V9.375C5.25 8.9875 5.2875 8.55938 5.3625 8.09063C5.4375 7.62188 5.525 7.2 5.625 6.825L4.5 7.4625V9.375C4.5 9.5875 4.42813 9.76562 4.28437 9.90938C4.14062 10.0531 3.9625 10.125 3.75 10.125C3.5375 10.125 3.35938 10.0531 3.21562 9.90938C3.07187 9.76562 3 9.5875 3 9.375V7.4625C3 7.1875 3.06875 6.93437 3.20625 6.70312C3.34375 6.47188 3.53125 6.2875 3.76875 6.15L7.05 4.29375C7.15 4.23125 7.25625 4.18438 7.36875 4.15312C7.48125 4.12187 7.6 4.10625 7.725 4.10625C8.0375 4.10625 8.31875 4.18438 8.56875 4.34062C8.81875 4.49687 9 4.70625 9.1125 4.96875L9.69375 6.225C9.90625 6.675 10.2125 7.04062 10.6125 7.32187C11.0125 7.60312 11.5125 7.775 12.1125 7.8375C12.3 7.8625 12.4531 7.94688 12.5719 8.09063C12.6906 8.23438 12.75 8.40625 12.75 8.60625C12.75 8.81875 12.6813 8.99687 12.5438 9.14062C12.4062 9.28438 12.2313 9.3625 12.0188 9.375L15.9562 16.2C16.0062 16.3 16.0188 16.3969 15.9938 16.4906C15.9688 16.5844 15.9063 16.6562 15.8063 16.7062C15.7188 16.7687 15.6281 16.7875 15.5344 16.7625C15.4406 16.7375 15.3625 16.675 15.3 16.575L11.0438 9.15C10.5438 9 10.0875 8.76875 9.675 8.45625C9.2625 8.14375 8.9125 7.775 8.625 7.35C8.5 7.7 8.40625 8.10938 8.34375 8.57812C8.28125 9.04688 8.25625 9.4875 8.26875 9.9L9.4875 11.6063C9.575 11.7313 9.64063 11.8656 9.68438 12.0094C9.72813 12.1531 9.75 12.3062 9.75 12.4688V16.125C9.75 16.3375 9.67813 16.5156 9.53438 16.6594C9.39063 16.8031 9.2125 16.875 9 16.875Z" fill="#70AACF"/>
	</g>
</svg>