<svg width="40" height="40" viewBox="0 0 18 18" fill="none" xmlns="http://www.w3.org/2000/svg">
	<g clip-path="url(#clip0_104_8218)">
		<mask id="mask0_104_8218" style="mask-type:alpha" maskUnits="userSpaceOnUse" x="0" y="0" width="40" height="40">
			<rect y="0.333336" width="18.6667" height="18.6667" fill="#FFFFFF"/>
		</mask>
		<g mask="url(#mask0_104_8218)">
			<path d="M4.49994 10.8333H10.4999V9.33334H4.49994V10.8333ZM4.49994 8.58334H13.4999V7.08334H4.49994V8.58334ZM4.49994 6.33334H13.4999V4.83334H4.49994V6.33334ZM1.49994 16.8333V3.33334C1.49994 2.92084 1.64681 2.56772 1.94056 2.27397C2.23431 1.98022 2.58744 1.83334 2.99994 1.83334H14.9999C15.4124 1.83334 15.7656 1.98022 16.0593 2.27397C16.3531 2.56772 16.4999 2.92084 16.4999 3.33334V12.3333C16.4999 12.7458 16.3531 13.099 16.0593 13.3927C15.7656 13.6865 15.4124 13.8333 14.9999 13.8333H4.49994L1.49994 16.8333ZM3.86244 12.3333H14.9999V3.33334H2.99994V13.1771L3.86244 12.3333Z" fill="#FFFFFF"/>
		</g>
	</g>
	<defs>
		<clipPath id="clip0_104_8218">
			<rect width="40" height="40" fill="white" transform="translate(0 0.333336)"/>
		</clipPath>
	</defs>
</svg>
