<svg xmlns="http://www.w3.org/2000/svg" width="40" height="40" viewBox="0 0 18 19" fill="none">
	<mask id="mask0_104_8242" style="mask-type:alpha" maskUnits="userSpaceOnUse" x="0" y="0" width="40" height="40">
		<rect y="0.666669" width="18" height="18" fill="#D9D9D9"/>
	</mask>
	<g mask="url(#mask0_104_8242)">
		<path d="M1.49994 17.1667V3.66668C1.49994 3.25418 1.64681 2.90105 1.94056 2.6073C2.23431 2.31355 2.58744 2.16668 2.99994 2.16668H14.9999C15.4124 2.16668 15.7656 2.31355 16.0593 2.6073C16.3531 2.90105 16.4999 3.25418 16.4999 3.66668V12.6667C16.4999 13.0792 16.3531 13.4323 16.0593 13.726C15.7656 14.0198 15.4124 14.1667 14.9999 14.1667H4.49994L1.49994 17.1667ZM3.86244 12.6667H14.9999V3.66668H2.99994V13.5104L3.86244 12.6667Z" fill="white"/>
		<path d="M10.2273 11.5952C9.31364 11.5952 8.53977 11.2839 7.90568 10.6611C7.27159 10.0383 6.95455 9.27828 6.95455 8.38095C6.95455 7.49033 7.27159 6.73196 7.90568 6.10584C8.53977 5.47973 9.31364 5.16667 10.2273 5.16667C11.1341 5.16667 11.9062 5.47973 12.5437 6.10584C13.1812 6.73196 13.5 7.49033 13.5 8.38095C13.5 9.27828 13.1812 10.0383 12.5437 10.6611C11.9062 11.2839 11.1341 11.5952 10.2273 11.5952ZM10.2273 10.7917C10.9091 10.7917 11.4886 10.5573 11.9659 10.0885C12.4432 9.61979 12.6818 9.0506 12.6818 8.38095C12.6818 7.71131 12.4432 7.14212 11.9659 6.67337C11.4886 6.20462 10.9091 5.97024 10.2273 5.97024C9.54545 5.97024 8.96591 6.20462 8.48864 6.67337C8.01136 7.14212 7.77273 7.71131 7.77273 8.38095C7.77273 9.0506 8.01136 9.61979 8.48864 10.0885C8.96591 10.5573 9.54545 10.7917 10.2273 10.7917ZM11.158 9.87761L11.7409 9.30506L10.6364 8.22024V6.77381H9.81818V8.55171L11.158 9.87761ZM4.90909 7.1756V6.37203H6.54545V7.1756H4.90909ZM4.5 8.78274V7.97917H6.54545V8.78274H4.5ZM4.90909 10.3899V9.58631H6.54545V10.3899H4.90909Z" fill="white"/>
	</g>
</svg>