<svg xmlns="http://www.w3.org/2000/svg" width="40" height="40" viewBox="0 0 18 18" fill="none">
	<mask id="mask0_104_8230" style="mask-type:alpha" maskUnits="userSpaceOnUse" x="0" y="0" width="40" height="40">
		<rect width="40" height="40" fill="#D9D9D9"/>
	</mask>
	<g mask="url(#mask0_104_8230)">
		<path d="M4.19989 1.53749H5.66239L8.19364 8.28749H6.78739L6.22489 6.67499H3.63739L3.07489 8.28749H1.66864L4.19989 1.53749ZM4.29364 9.07499C4.81864 9.07499 5.26239 9.25624 5.62489 9.61874C5.98739 9.98124 6.16864 10.425 6.16864 10.95C6.16864 11.2 6.12177 11.4406 6.02802 11.6719C5.93427 11.9031 5.79989 12.1062 5.62489 12.2812L5.34364 12.5437L5.86864 13.0687L6.93739 12.0187L8.00614 13.0875L6.95614 14.1375L8.00614 15.2062L6.93739 16.2562L5.88739 15.2062L5.09989 15.9937C4.91239 16.1812 4.69989 16.3219 4.46239 16.4156C4.22489 16.5094 3.97489 16.5562 3.71239 16.5562C3.18739 16.5562 2.74989 16.3719 2.39989 16.0031C2.04989 15.6344 1.87489 15.1875 1.87489 14.6625C1.87489 14.4125 1.92489 14.1719 2.02489 13.9406C2.12489 13.7094 2.26239 13.5062 2.43739 13.3312L3.22489 12.5437L2.96239 12.2812C2.78739 12.1062 2.64989 11.9062 2.54989 11.6812C2.44989 11.4562 2.39989 11.2187 2.39989 10.9687C2.39989 10.4437 2.58427 9.99687 2.95302 9.62812C3.32177 9.25937 3.76864 9.07499 4.29364 9.07499ZM4.29364 13.6125L3.48739 14.4C3.44989 14.4375 3.42489 14.4781 3.41239 14.5219C3.39989 14.5656 3.39364 14.6125 3.39364 14.6625C3.39364 14.7625 3.42802 14.85 3.49677 14.925C3.56552 15 3.64989 15.0375 3.74989 15.0375C3.79989 15.0375 3.84677 15.0281 3.89052 15.0094C3.93427 14.9906 3.97489 14.9625 4.01239 14.925L4.81864 14.1375L4.29364 13.6125ZM4.27489 10.575C4.17489 10.575 4.09052 10.6125 4.02177 10.6875C3.95302 10.7625 3.91864 10.85 3.91864 10.95C3.91864 11 3.92489 11.0469 3.93739 11.0906C3.94989 11.1344 3.97489 11.175 4.01239 11.2125L4.29364 11.475L4.53739 11.2312C4.57489 11.1937 4.60302 11.1531 4.62177 11.1094C4.64052 11.0656 4.64989 11.0187 4.64989 10.9687C4.64989 10.8687 4.61239 10.7781 4.53739 10.6969C4.46239 10.6156 4.37489 10.575 4.27489 10.575ZM4.89364 2.99999L4.03114 5.51249H5.83114L4.96864 2.99999H4.89364ZM13.1061 1.03124C13.2061 1.19374 13.2905 1.36249 13.3593 1.53749C13.428 1.71249 13.4874 1.88749 13.5374 2.06249L12.7311 2.30624L16.4999 2.28749V3.80624H15.2436C15.1061 4.21874 14.928 4.60937 14.7093 4.97812C14.4905 5.34687 14.2374 5.68749 13.9499 5.99999C14.2874 6.19999 14.6374 6.36562 14.9999 6.49687C15.3624 6.62812 15.7374 6.74374 16.1249 6.84374L15.7686 8.28749C15.2311 8.14999 14.7093 7.98124 14.203 7.78124C13.6968 7.58124 13.2124 7.32499 12.7499 7.01249C12.2874 7.31249 11.803 7.56562 11.2968 7.77187C10.7905 7.97812 10.2686 8.14999 9.73114 8.28749L9.39364 6.84374C9.76864 6.74374 10.1374 6.62812 10.4999 6.49687C10.8624 6.36562 11.2124 6.19999 11.5499 5.99999C11.2624 5.68749 11.0093 5.34687 10.7905 4.97812C10.5718 4.60937 10.3999 4.21874 10.2749 3.80624H8.99989V2.30624H12.2999C12.2624 2.14374 12.2124 1.98437 12.1499 1.82812C12.0874 1.67187 12.0249 1.51874 11.9624 1.36874L13.1061 1.03124ZM15.0561 9.35624L16.1249 10.4062L10.2936 16.2375L9.22489 15.1875L15.0561 9.35624ZM10.8749 9.78749C11.1874 9.78749 11.453 9.89687 11.6718 10.1156C11.8905 10.3344 11.9999 10.6 11.9999 10.9125C11.9999 11.225 11.8905 11.4906 11.6718 11.7094C11.453 11.9281 11.1874 12.0375 10.8749 12.0375C10.5624 12.0375 10.2968 11.9281 10.078 11.7094C9.85927 11.4906 9.74989 11.225 9.74989 10.9125C9.74989 10.6 9.85927 10.3344 10.078 10.1156C10.2968 9.89687 10.5624 9.78749 10.8749 9.78749ZM11.8686 3.80624C11.9686 4.04374 12.0936 4.26874 12.2436 4.48124C12.3936 4.69374 12.5624 4.89374 12.7499 5.08124C12.9374 4.89374 13.1061 4.69374 13.2561 4.48124C13.4061 4.26874 13.5374 4.04374 13.6499 3.80624H11.8686ZM14.6249 13.5375C14.9374 13.5375 15.203 13.6469 15.4218 13.8656C15.6405 14.0844 15.7499 14.35 15.7499 14.6625C15.7499 14.975 15.6405 15.2406 15.4218 15.4594C15.203 15.6781 14.9374 15.7875 14.6249 15.7875C14.3124 15.7875 14.0468 15.6781 13.828 15.4594C13.6093 15.2406 13.4999 14.975 13.4999 14.6625C13.4999 14.35 13.6093 14.0844 13.828 13.8656C14.0468 13.6469 14.3124 13.5375 14.6249 13.5375Z" fill="white"/>
	</g>
</svg>