<svg xmlns="http://www.w3.org/2000/svg" width="40" height="40" viewBox="0 0 18 18" fill="none">
<mask id="mask0_104_8068" style="mask-type:alpha" maskUnits="userSpaceOnUse" x="0" y="0" width="40" height="40">
<rect width="40" height="40" fill="#52CC3B"/>
</mask>
<g mask="url(#mask0_104_8068)">
<path d="M13.5 4.875C13.0875 4.875 12.7344 4.72813 12.4406 4.43438C12.1469 4.14062 12 3.7875 12 3.375C12 2.9625 12.1469 2.60938 12.4406 2.31563C12.7344 2.02188 13.0875 1.875 13.5 1.875C13.9125 1.875 14.2656 2.02188 14.5594 2.31563C14.8531 2.60938 15 2.9625 15 3.375C15 3.7875 14.8531 4.14062 14.5594 4.43438C14.2656 4.72813 13.9125 4.875 13.5 4.875ZM7.5 16.5C6.4625 16.5 5.57812 16.1344 4.84687 15.4031C4.11562 14.6719 3.75 13.7875 3.75 12.75C3.75 11.7125 4.11562 10.8281 4.84687 10.0969C5.57812 9.36563 6.4625 9 7.5 9V10.5C6.875 10.5 6.34375 10.7188 5.90625 11.1562C5.46875 11.5938 5.25 12.125 5.25 12.75C5.25 13.375 5.46875 13.9062 5.90625 14.3438C6.34375 14.7812 6.875 15 7.5 15C8.125 15 8.65625 14.7812 9.09375 14.3438C9.53125 13.9062 9.75 13.375 9.75 12.75H11.25C11.25 13.7875 10.8844 14.6719 10.1531 15.4031C9.42188 16.1344 8.5375 16.5 7.5 16.5ZM14.25 15.75C14.0375 15.75 13.8594 15.6781 13.7156 15.5344C13.5719 15.3906 13.5 15.2125 13.5 15V12H9.75C9.2 12 8.775 11.7656 8.475 11.2969C8.175 10.8281 8.1375 10.3375 8.3625 9.825L9.75 6.75H8.04375L7.81875 7.3125C7.75625 7.475 7.64375 7.59688 7.48125 7.67813C7.31875 7.75938 7.15 7.775 6.975 7.725C6.75 7.6625 6.58438 7.53125 6.47813 7.33125C6.37188 7.13125 6.3625 6.925 6.45 6.7125L6.675 6.15C6.7875 5.8625 6.97188 5.64062 7.22813 5.48438C7.48438 5.32812 7.7625 5.25 8.0625 5.25H11.9625C12.525 5.25 12.9531 5.47812 13.2469 5.93437C13.5406 6.39062 13.575 6.875 13.35 7.3875L12.1125 10.125H13.5C13.9125 10.125 14.2656 10.2719 14.5594 10.5656C14.8531 10.8594 15 11.2125 15 11.625V15C15 15.2125 14.9281 15.3906 14.7844 15.5344C14.6406 15.6781 14.4625 15.75 14.25 15.75Z" fill="#52CC3B"/>
</g>
</svg>